<svg width="48" height="42" viewBox="0 0 48 42" fill="none" xmlns="http://www.w3.org/2000/svg">
<path d="M29.832 35.6667H25.457C24.6516 35.6667 23.9987 35.0137 23.9987 34.2083C23.9987 33.4029 24.6516 32.75 25.457 32.75H31.2904C32.0958 32.75 32.7487 32.0971 32.7487 31.2917C32.7487 30.4862 32.0958 29.8333 31.2904 29.8333L25.457 29.8333C24.6516 29.8333 23.9987 29.1804 23.9987 28.375C23.9987 27.5696 24.6516 26.9167 25.457 26.9167L31.2904 26.9167C32.0958 26.9167 32.7487 26.2637 32.7487 25.4583C32.7487 24.6529 32.0958 24 31.2904 24L25.457 24C24.6516 24 23.9987 23.3471 23.9987 22.5417C23.9987 21.7362 24.6516 21.0833 25.457 21.0833L31.2904 21.0833C32.0958 21.0833 32.7487 20.4304 32.7487 19.625C32.7487 18.8196 32.0958 18.1667 31.2904 18.1667L26.777 18.1667C25.8118 18.1667 24.8772 17.8283 24.1358 17.2104C22.3853 15.7517 22.1488 13.1502 23.6075 11.3997L25.853 8.70522C26.5394 7.88146 26.9154 6.84312 26.9154 5.77083C26.9154 4.99394 26.4702 4.28574 25.7702 3.94885L25.5538 3.84473C24.7347 3.45056 23.761 3.56995 23.0614 4.15033L7.54438 17.0229C5.03438 19.1052 3.58203 22.1971 3.58203 25.4583C3.58203 32.7071 9.45829 38.5833 16.707 38.5833H42.957C43.7624 38.5833 44.4154 37.9304 44.4154 37.125C44.4154 36.3196 43.7624 35.6667 42.957 35.6667H29.832ZM35.4164 32.75H42.957C45.3733 32.75 47.332 34.7088 47.332 37.125C47.332 39.5412 45.3733 41.5 42.957 41.5H16.707C7.84746 41.5 0.665363 34.3179 0.665363 25.4583C0.665363 21.3292 2.50419 17.4145 5.68215 14.7782L21.1992 1.90554C22.7765 0.597014 24.9718 0.327849 26.8186 1.21655L27.0349 1.32068C28.7448 2.14352 29.832 3.87327 29.832 5.77083C29.832 7.52543 29.2169 9.2245 28.0936 10.5724L25.8482 13.2669C25.4207 13.7799 25.49 14.5423 26.003 14.9698C26.2203 15.1508 26.4942 15.25 26.777 15.25H31.2904C33.7066 15.25 35.6654 17.2088 35.6654 19.625C35.6654 20.7455 35.2441 21.7676 34.5514 22.5417C35.2441 23.3157 35.6654 24.3378 35.6654 25.4583C35.6654 26.5788 35.2441 27.601 34.5514 28.375C35.2441 29.149 35.6654 30.1711 35.6654 31.2917C35.6654 31.803 35.5776 32.2939 35.4164 32.75Z" fill="#99A2AD"/>
</svg>
