<svg width="28" height="24" viewBox="0 0 28 24" fill="none" xmlns="http://www.w3.org/2000/svg">
<path d="M17.332 20.6667H14.832C14.3718 20.6667 13.9987 20.2936 13.9987 19.8334C13.9987 19.3731 14.3718 19 14.832 19H18.1654C18.6256 19 18.9987 18.6269 18.9987 18.1667C18.9987 17.7064 18.6256 17.3334 18.1654 17.3334H14.832C14.3718 17.3334 13.9987 16.9603 13.9987 16.5C13.9987 16.0398 14.3718 15.6667 14.832 15.6667L18.1654 15.6667C18.6256 15.6667 18.9987 15.2936 18.9987 14.8334C18.9987 14.3731 18.6256 14 18.1654 14L14.832 14C14.3718 14 13.9987 13.6269 13.9987 13.1667C13.9987 12.7064 14.3718 12.3334 14.832 12.3334L18.1654 12.3334C18.6256 12.3334 18.9987 11.9603 18.9987 11.5C18.9987 11.0398 18.6256 10.6667 18.1654 10.6667L15.5863 10.6667C15.0348 10.6667 14.5007 10.4733 14.077 10.1203C13.0768 9.28671 12.9416 7.80012 13.7752 6.79987L15.0583 5.26014C15.4505 4.78943 15.6654 4.19609 15.6654 3.58335C15.6654 3.13941 15.411 2.73473 15.011 2.54222L14.8873 2.48273C14.4193 2.25749 13.8629 2.32571 13.4631 2.65735L4.59623 10.0131C3.16194 11.203 2.33203 12.9698 2.33203 14.8334C2.33203 18.9755 5.6899 22.3334 9.83203 22.3334H24.832C25.2923 22.3334 25.6654 21.9603 25.6654 21.5C25.6654 21.0398 25.2923 20.6667 24.832 20.6667H17.332ZM20.5231 19H24.832C26.2127 19 27.332 20.1193 27.332 21.5C27.332 22.8807 26.2127 24 24.832 24H9.83203C4.76942 24 0.665365 19.896 0.665365 14.8334C0.665365 12.4738 1.71613 10.2369 3.5321 8.73039L12.399 1.37462C13.3003 0.626887 14.5548 0.473079 15.6101 0.98091L15.7337 1.04041C16.7108 1.5106 17.332 2.49903 17.332 3.58335C17.332 4.58598 16.9805 5.55688 16.3387 6.32712L15.0555 7.86684C14.8113 8.15997 14.8509 8.59562 15.144 8.83989C15.2682 8.94336 15.4247 9.00002 15.5863 9.00002L18.1654 9.00002C19.5461 9.00002 20.6654 10.1193 20.6654 11.5C20.6654 12.1403 20.4247 12.7244 20.0288 13.1667C20.4247 13.609 20.6654 14.1931 20.6654 14.8334C20.6654 15.4736 20.4247 16.0577 20.0288 16.5C20.4247 16.9423 20.6654 17.5264 20.6654 18.1667C20.6654 18.4589 20.6152 18.7394 20.5231 19Z" fill="white"/>
</svg>
