<svg width="60" height="60" viewBox="0 0 60 60" fill="none" xmlns="http://www.w3.org/2000/svg">
<circle cx="30" cy="30" r="30" fill="white"/>
<path d="M30.5 48.5C30.5 48.5 38.0766 43.1888 41.5 38.5C44.3321 34.6211 47.0155 32.2783 47.5002 27.5C47.8599 23.955 47.5196 21.5196 45 19C42.4804 16.4804 40.4931 16.2956 37.0002 17C33.9139 17.6224 30.0002 21 30.0002 21C30.0002 21 25.4922 16.0732 22 16C19.0979 15.9392 17.0466 17.4413 15.0002 19.5C12.462 22.0535 12.1726 24.996 13.0002 28.5C13.7994 31.8834 15.7632 33.3386 18 36C22.5315 41.3915 30.5 48.5 30.5 48.5Z" fill="#FF8C8C"/>
<path d="M16.4903 18.8889C16.1634 19.161 15.8534 19.4588 15.5629 19.7803C14.7503 20.6793 14.1058 21.7466 13.6661 22.9213C13.2263 24.0959 13 25.3549 13 26.6264C13 27.8978 13.2263 29.1569 13.6661 30.3315C14.1058 31.5062 14.7503 32.5735 15.5629 33.4724L27.615 46.808C29.1591 48.5164 31.8413 48.5164 33.3854 46.808L38.6069 41.0304" stroke="#AE6B6B" stroke-width="4" stroke-linecap="round" stroke-linejoin="round"/>
<path d="M13 15L44.1115 46.1115" stroke="#AE6B6B" stroke-width="4" stroke-linecap="round" stroke-linejoin="round"/>
<path d="M25.0977 17.6814C26.1593 18.168 27.1238 18.8812 27.9364 19.7802C29.3079 21.2978 31.6904 21.2978 33.0621 19.7802C34.703 17.9645 36.9286 16.9445 39.2493 16.9445C41.5699 16.9445 43.7955 17.9645 45.4364 19.7802C47.0776 21.5959 47.9994 24.0586 47.9994 26.6263C47.9994 29.1942 47.0776 31.6567 45.4364 33.4724L43.6792 35.4169" stroke="#AE6B6B" stroke-width="4" stroke-linecap="round" stroke-linejoin="round"/>
</svg>
